<svg width="40" height="40" viewBox="0 0 40 40" fill="none" xmlns="http://www.w3.org/2000/svg">
<rect width="40" height="40" rx="8" fill="#8A63D2"/>
<path d="M9.50699 6.07202H30.097V10.167H35.952L34.725 14.263H33.686V30.833C34.207 30.833 34.63 31.249 34.63 31.763V32.88H34.819C35.341 32.88 35.764 33.297 35.764 33.811V34.928H25.185V33.811C25.185 33.297 25.608 32.88 26.13 32.88H26.319V31.763C26.319 31.316 26.639 30.943 27.065 30.853L27.045 21.71C26.711 18.057 23.596 15.194 19.802 15.194C16.008 15.194 12.893 18.057 12.559 21.71L12.539 30.845C13.043 30.919 13.663 31.302 13.663 31.763V32.88H13.852C14.373 32.88 14.796 33.297 14.796 33.811V34.928H4.21799V33.811C4.21799 33.297 4.64099 32.88 5.16199 32.88H5.35099V31.763C5.35099 31.249 5.77399 30.833 6.29599 30.833V14.263H5.25699L4.02899 10.167H9.50699V6.07202Z" fill="white"/>
<path d="M30.097 6.07203H30.166V6.00403H30.097V6.07203ZM9.50701 6.07203V6.00403H9.43801V6.07203H9.50701ZM30.097 10.167H30.028V10.235H30.097V10.167ZM35.952 10.167L36.019 10.187L36.045 10.099H35.952V10.167ZM34.725 14.263V14.331H34.776L34.791 14.282L34.725 14.263ZM33.686 14.263V14.195H33.617V14.263H33.686ZM33.686 30.833H33.617V30.901H33.686V30.833ZM34.63 32.88H34.561V32.948H34.63V32.88ZM35.764 34.928V34.996H35.832V34.928H35.764ZM25.185 34.928H25.116V34.996H25.185V34.928ZM26.319 32.88V32.948H26.388V32.88H26.319ZM27.065 30.853L27.08 30.919L27.134 30.908V30.853H27.065ZM27.045 21.71H27.114V21.707L27.113 21.704L27.045 21.71ZM12.559 21.71L12.49 21.704V21.707V21.71H12.559ZM12.539 30.845H12.47L12.469 30.904L12.528 30.913L12.539 30.845ZM13.663 32.88H13.594V32.948H13.663V32.88ZM14.796 34.928V34.996H14.865V34.928H14.796ZM4.21801 34.928H4.14901V34.996H4.21801V34.928ZM5.35101 32.88V32.948H5.42001V32.88H5.35101ZM6.29601 30.833V30.901H6.36501V30.833H6.29601ZM6.29601 14.263H6.36501V14.195H6.29601V14.263ZM5.25701 14.263L5.19101 14.282L5.20501 14.331H5.25701V14.263ZM4.02901 10.167V10.1H3.93701L3.96301 10.187L4.02901 10.167ZM9.50701 10.167V10.235H9.57601V10.167H9.50701ZM30.097 6.00403H9.50701V6.13903H30.097V6.00403ZM30.166 10.167V6.07203H30.028V10.167H30.166ZM35.952 10.099H30.097V10.235H35.952V10.099ZM34.791 14.282L36.019 10.187L35.886 10.148L34.658 14.244L34.791 14.282ZM33.686 14.331H34.725V14.195H33.686V14.331ZM33.755 30.833V14.263H33.617V30.833H33.755ZM34.699 31.763C34.699 31.212 34.245 30.765 33.686 30.765V30.901C34.169 30.901 34.561 31.287 34.561 31.763H34.699ZM34.699 32.88V31.763H34.561V32.88H34.699ZM34.819 32.813H34.63V32.948H34.819V32.813ZM35.832 33.811C35.832 33.26 35.379 32.813 34.819 32.813V32.948C35.303 32.948 35.695 33.335 35.695 33.811H35.832ZM35.832 34.928V33.811H35.695V34.928H35.832ZM30.097 34.996H35.764V34.86H30.097V34.996ZM27.074 34.996H30.097V34.86H27.074V34.996ZM25.185 34.996H27.074V34.86H25.185V34.996ZM25.116 33.811V34.928H25.254V33.811H25.116ZM26.13 32.813C25.57 32.813 25.116 33.26 25.116 33.811H25.254C25.254 33.335 25.646 32.948 26.13 32.948V32.813ZM26.319 32.813H26.13V32.948H26.319V32.813ZM26.25 31.763V32.88H26.388V31.763H26.25ZM27.051 30.787C26.593 30.883 26.25 31.284 26.25 31.763H26.388C26.388 31.349 26.684 31.003 27.08 30.919L27.051 30.787ZM26.976 21.71L26.996 30.853H27.134L27.114 21.71H26.976ZM19.802 15.262C23.559 15.262 26.645 18.098 26.976 21.716L27.113 21.704C26.776 18.016 23.632 15.126 19.802 15.126V15.262ZM12.628 21.716C12.959 18.098 16.044 15.262 19.802 15.262V15.126C15.972 15.126 12.828 18.016 12.49 21.704L12.628 21.716ZM12.608 30.845L12.628 21.71H12.49L12.47 30.845H12.608ZM13.732 31.763C13.732 31.502 13.557 31.273 13.331 31.105C13.104 30.935 12.812 30.817 12.549 30.778L12.528 30.913C12.769 30.949 13.039 31.057 13.248 31.213C13.459 31.37 13.594 31.563 13.594 31.763H13.732ZM13.732 32.88V31.763H13.594V32.88H13.732ZM13.852 32.813H13.663V32.948H13.852V32.813ZM14.865 33.811C14.865 33.26 14.411 32.813 13.852 32.813V32.948C14.335 32.948 14.727 33.335 14.727 33.811H14.865ZM14.865 34.928V33.811H14.727V34.928H14.865ZM12.529 34.996H14.796V34.86H12.529V34.996ZM12.372 34.996H12.529V34.86H12.372V34.996ZM9.50701 34.996H12.372V34.86H9.50701V34.996ZM4.21801 34.996H9.50701V34.86H4.21801V34.996ZM4.14901 33.811V34.928H4.28701V33.811H4.14901ZM5.16201 32.813C4.60301 32.813 4.14901 33.26 4.14901 33.811H4.28701C4.28701 33.335 4.67901 32.948 5.16201 32.948V32.813ZM5.35101 32.813H5.16201V32.948H5.35101V32.813ZM5.28201 31.763V32.88H5.42001V31.763H5.28201ZM6.29601 30.765C5.73601 30.765 5.28201 31.212 5.28201 31.763H5.42001C5.42001 31.287 5.81201 30.901 6.29601 30.901V30.765ZM6.22701 14.263V30.833H6.36501V14.263H6.22701ZM5.25701 14.331H6.29601V14.195H5.25701V14.331ZM3.96301 10.187L5.19101 14.282L5.32301 14.244L4.09501 10.148L3.96301 10.187ZM9.50701 10.099L4.02901 10.1V10.235H9.50701V10.099ZM9.43801 6.07203V10.167H9.57601V6.07203H9.43801Z" fill="white"/>
</svg>
