<svg width="687" height="128" viewBox="0 0 687 128" fill="none" xmlns="http://www.w3.org/2000/svg">
<path d="M163.056 109.048C154.352 109.048 147.312 105.464 143.216 98.68H142.96V107H122.992V15.48H143.856V48.888H144.24C148.336 43.256 153.968 39.544 162.928 39.544C179.952 39.544 190.96 54.52 190.96 74.232C190.96 95.992 179.952 109.048 163.056 109.048ZM157.168 92.536C165.36 92.536 169.84 85.496 169.84 74.104C169.84 62.84 165.36 55.416 156.912 55.416C147.696 55.416 143.216 63.48 143.216 74.232C143.216 85.112 148.592 92.536 157.168 92.536ZM197.352 107V41.464H218.216V107H197.352ZM197.352 32.376V15.48H218.216V32.376H197.352ZM227.715 107V15.48H248.835V107H227.715ZM258.45 107V15.48H279.57V107H258.45ZM329.121 109.048C320.417 109.048 313.377 105.464 309.281 98.68H309.025V107H289.057V15.48H309.921V48.888H310.305C314.401 43.256 320.033 39.544 328.993 39.544C346.017 39.544 357.025 54.52 357.025 74.232C357.025 95.992 346.017 109.048 329.121 109.048ZM323.233 92.536C331.425 92.536 335.905 85.496 335.905 74.104C335.905 62.84 331.425 55.416 322.977 55.416C313.761 55.416 309.281 63.48 309.281 74.232C309.281 85.112 314.657 92.536 323.233 92.536ZM395.417 94.2C404.505 94.2 409.369 86.264 409.369 74.36C409.369 62.456 404.505 54.392 395.417 54.392C386.329 54.392 381.593 62.456 381.593 74.36C381.593 86.264 386.329 94.2 395.417 94.2ZM395.545 109.048C374.553 109.048 360.473 94.072 360.473 74.36C360.473 54.648 374.553 39.672 395.545 39.672C416.665 39.672 430.489 54.648 430.489 74.36C430.489 94.072 416.665 109.048 395.545 109.048ZM456.23 108.664C443.174 108.664 433.83 101.624 433.83 88.696C433.83 74.232 445.35 69.88 458.918 68.088C471.206 66.552 475.558 65.272 475.558 60.792C475.558 56.568 472.87 53.752 466.598 53.752C459.942 53.752 456.614 56.696 455.974 62.2H436.774C437.286 50.04 446.63 39.672 466.47 39.672C476.326 39.672 482.982 41.464 487.718 45.048C493.35 49.144 496.038 55.544 496.038 63.736V96.76C496.038 102.008 496.55 104.952 498.342 106.104V107H478.118C477.094 105.592 476.454 103.032 475.942 99.704H475.686C471.846 105.208 466.086 108.664 456.23 108.664ZM462.886 95.352C470.694 95.352 476.07 90.616 476.07 83.576V75.768C473.382 77.176 469.542 78.2 465.318 79.224C457.254 81.016 453.926 83.064 453.926 88.056C453.926 93.304 457.766 95.352 462.886 95.352ZM505.512 107V41.464H525.48V51.704H525.864C530.472 43.896 535.848 40.44 543.784 40.44C545.704 40.44 546.984 40.568 547.88 40.952V58.872H547.368C534.568 57.08 526.376 63.352 526.376 77.56V107H505.512ZM578.35 109.048C561.582 109.048 549.678 96.12 549.678 74.232C549.678 53.752 561.454 39.544 578.35 39.544C587.566 39.544 592.814 43.384 596.654 48.888H597.038V15.48H617.902V107H597.934V98.168H597.678C593.71 104.952 586.926 109.048 578.35 109.048ZM583.726 92.536C592.43 92.536 597.55 84.984 597.55 74.232C597.55 63.224 593.07 55.288 583.982 55.288C575.662 55.288 570.798 62.968 570.798 73.976C570.798 85.368 575.662 92.536 583.726 92.536ZM655.136 109.048C635.936 109.048 623.904 100.216 623.264 85.752H642.976C643.744 92.28 648.096 95.48 655.008 95.48C661.28 95.48 665.248 93.176 665.248 88.952C665.248 83.064 657.312 82.424 648.608 80.888C637.216 78.968 625.056 75.896 625.056 60.536C625.056 46.712 637.856 39.544 653.344 39.544C671.904 39.544 681.888 47.608 682.912 60.536H663.712C662.944 54.648 658.976 52.856 653.216 52.856C648.096 52.856 644.128 54.776 644.128 58.872C644.128 63.48 651.552 64.12 659.872 65.656C671.392 67.576 684.96 70.52 684.96 87.288C684.96 101.624 672.288 109.048 655.136 109.048Z" fill="black"/>
<rect y="12" width="102" height="102" rx="21" fill="#0E7DFF"/>
<path d="M54.8832 96C48.6083 96 43.533 93.4337 40.58 88.5759H40.3955V94.5335H26V29H41.0414V52.922H41.3183C44.2712 48.8892 48.3314 46.2312 54.791 46.2312C67.064 46.2312 75 56.9549 75 71.0698C75 86.6512 67.064 96 54.8832 96ZM50.6384 84.1765C56.5443 84.1765 59.774 79.1354 59.774 70.9781C59.774 62.9124 56.5443 57.5964 50.4539 57.5964C43.8098 57.5964 40.58 63.3707 40.58 71.0698C40.58 78.8605 44.4557 84.1765 50.6384 84.1765Z" fill="white"/>
<rect x="68" y="29" width="4" height="4" rx="1" fill="white"/>
<rect x="73" y="29" width="4" height="4" rx="1" fill="white"/>
<rect x="78" y="29" width="4" height="4" rx="1" fill="white"/>
<rect x="68" y="34" width="4" height="4" rx="1" fill="white"/>
<rect x="73" y="34" width="4" height="4" rx="1" fill="white"/>
<rect x="78" y="34" width="4" height="4" rx="1" fill="white"/>
<rect x="68" y="39" width="4" height="4" rx="1" fill="white"/>
<rect x="73" y="39" width="4" height="4" rx="1" fill="white"/>
<rect x="78" y="39" width="4" height="4" rx="1" fill="white"/>
</svg>
