<svg width="40" height="40" viewBox="0 0 40 40" fill="none" xmlns="http://www.w3.org/2000/svg">
<g clip-path="url(#clip0_87_980)">
<path d="M0.0430145 19.9783C0.0430145 8.9446 8.98762 0 20.0213 0C31.0479 0 39.5672 8.77838 39.8267 19.8918C39.8267 23.4378 38.6159 26.4216 35.5889 29.2324C33.0309 31.6076 28.6699 31.9567 25.4702 30.1837C23.1865 28.8663 21.4264 26.0606 19.9349 23.9999L17.1673 28.2378H11.1997L16.8213 19.8916L11.3727 11.6756H17.5132L19.9781 15.9135L22.3997 11.6756H28.5835L22.9619 19.8918C22.9619 19.8918 25.643 23.9999 27.1132 25.5999C28.5835 27.1999 31.2645 27.2432 32.9943 25.5135C34.896 23.6117 35.3218 22.0974 35.3294 19.8918C35.3591 11.3551 28.5784 4.49729 20.0213 4.49729C11.4714 4.49729 4.5403 11.4284 4.5403 19.9783C4.5403 28.5283 11.4714 35.4594 20.0213 35.4594C21.2039 35.4594 22.3375 35.36 23.4376 35.1134L24.4754 39.481C22.9101 39.832 21.5589 39.9566 20.0213 39.9566C8.98762 39.9566 0.0430145 31.0121 0.0430145 19.9783Z" fill="#FC4F37"/>
</g>
<defs>
<clipPath id="clip0_87_980">
<rect width="40" height="40" fill="white"/>
</clipPath>
</defs>
</svg>
